<?xml version="1.0" encoding="utf-8"?>
<!-- Generator: Adobe Illustrator 21.0.0, SVG Export Plug-In . SVG Version: 6.00 Build 0)  -->
<svg version="1.1" id="Capa_1" xmlns="http://www.w3.org/2000/svg" xmlns:xlink="http://www.w3.org/1999/xlink" x="0px" y="0px"
	 viewBox="0 0 498.5 431.8" style="enable-background:new 0 0 498.5 431.8;" xml:space="preserve">
<g>
	<path d="M57.4,162.9c0-19,0-37.9,0-56.9c1.2-0.1,2.1-0.2,3-0.2c10.6,0,21.1,0,31.7,0c3.7,0,3.9-0.2,3.9-3.9c0-27.2,0-54.4,0-81.6
		c0-6.3,1.9-11.8,6.9-15.8c3.7-3,7.9-4.4,12.8-4.4c71,0,141.9,0,212.9,0c18.2,0,36.3,0,54.5,0c8,0,14,3.5,17.8,10.7
		c0.9,1.7,1.6,3.4,1.6,5.4c0,4.8,0.2,9.6,0.2,14.4c0,23.5,0,47,0,70.6c0,4.7,0,4.7,4.6,4.7c10.4,0,20.8,0,31.2,0
		c0.9,0,1.7,0.1,2.8,0.1c0,19,0,37.8,0,56.9c1.3,0.1,2.4,0.3,3.5,0.3c11.4,0,22.7,0,34.1,0c6.6,0,12.1,2.4,16.2,7.8
		c2,2.6,3.5,5.5,3.5,8.9c0,1.4,0.1,2.9,0.1,4.3c0,43.8,0,87.5,0,131.3c0,1.9,0,3.8-0.2,5.8c-0.6,6.9-4.5,11.6-10.4,14.6
		c-2.8,1.5-5.9,2-9.2,2c-24.2-0.1-48.5,0-72.7,0c-3.4,0-3.5,0-3.5,3.5c0,22.5,0,45,0,67.4c0,2.1,0,4.2-0.2,6.2
		c-0.6,6.9-4.4,11.7-10.5,14.8c-3.3,1.7-6.9,2.1-10.7,2.1c-71.1,0-142.2,0-213.3,0c-17.4,0-34.7,0-52.1,0c-8.6,0-16-4.7-18.7-12.9
		c-0.7-2.1-1-4.5-1-6.8c-0.1-12.5-0.1-25-0.1-37.4c0-11.1,0-22.2,0-33.4c0-3.5,0-3.5-3.5-3.5c-24.4,0-48.8,0-73.2,0
		c-8.6,0-16.1-5.4-18.5-13.4c-0.6-2-0.7-4.3-0.7-6.4C0,309.9,0,301.8,0,293.8c0-36.5,0-73,0-109.4c0-3.1,0-6.2,1.3-9.2
		C4,169,8.4,165,15.1,163.8c2.5-0.5,5.1-0.6,7.6-0.7c10.6-0.1,21.1,0,31.7,0C55.3,163.1,56.2,163,57.4,162.9z M249.2,163.1
		c7.1,0,14.2,0,21.4,0c36.5,0,72.9,0,109.4,0c4,0,4,0,4-3.9c0-17.2,0-34.4,0-51.6c0-28.5,0-56.9,0-85.4c0-3.4-0.1-3.4-3.5-3.4
		c-29.3,0-58.5,0-87.8,0c-58.1,0-116.3,0-174.4,0c-0.6,0-1.1,0-1.7,0c-1.2-0.1-1.8,0.6-1.9,1.7c-0.1,1.2-0.1,2.4-0.1,3.6
		c0,44.9,0,89.9,0,134.8c0,4.2,0,4.2,4.2,4.2c17.4,0,34.9,0,52.3,0C197.1,163.1,223.1,163.1,249.2,163.1z M249,412.9
		C249,412.9,249,412.9,249,412.9c43.9,0,87.8,0,131.7,0c3.1,0,3.2-0.1,3.3-3.2c0-0.4,0-0.8,0-1.2c0-7.4,0-14.7,0-22.1
		c0-25.3,0-50.5,0-75.8c0-3.8,0-3.8-3.9-3.8c-45.8,0-91.7,0-137.5,0c-41.7,0-83.3,0-125,0c-2.7,0-3,0.3-3.1,3c0,0.2,0,0.5,0,0.7
		c0,32.9,0,65.7,0,98.6c0,0.8,0,1.6,0.1,2.4c0.1,0.9,0.7,1.4,1.6,1.4c0.5,0,1,0,1.4,0C161.5,412.9,205.2,412.9,249,412.9z
		 M153.4,220.7c64,0,127.9,0,191.9,0c0.1-0.9,0.1-1.7,0.2-2.5c0-4.8,0-9.6,0-14.4c0-2.5-0.1-2.6-2.8-2.6c-4.3,0-8.6,0-13,0
		c-25.2,0-50.4,0-75.6,0c-15.1,0-30.2,0-45.3,0c-17.5,0-35,0-52.5,0c-0.9,0-1.9,0.2-2.8,0.3C153.4,208,153.4,214.3,153.4,220.7z"/>
	<path d="M163.4,346.8c0-4.2,0-8,0-12c1.1-0.1,2.1-0.3,3.1-0.3c11,0,21.9-0.1,32.9-0.1c32.9,0,65.9,0,98.8,0c11.3,0,22.6,0,33.8,0.1
		c1,0,2,0.2,3.1,0.3c0,4,0,7.8,0,12C277.9,346.8,220.7,346.8,163.4,346.8z"/>
	<path d="M335.1,373.1c0,4,0,7.8,0,11.5c-2.1,0.6-168.9,0.7-171.5,0.1c-0.7-1.8-0.2-3.7-0.3-5.6c-0.1-1.9,0-3.8,0-5.6
		c0.2-0.2,0.3-0.3,0.3-0.3c0.1-0.1,0.1-0.1,0.2-0.1c0.3-0.1,0.6-0.1,0.9-0.1c56.4,0,112.8,0,169.2,0
		C334.2,373,334.5,373,335.1,373.1z"/>
</g>
</svg>
